<svg id="Layer_2" data-name="Layer 2" xmlns="http://www.w3.org/2000/svg" viewBox="0 0 450.29 270.29"><defs><style>.cls-1{fill:#2d2f4a;}.cls-2{fill:#15ecfc;}.cls-3{font-size:50px;font-family:RobotoMono-Regular, Roboto Mono;letter-spacing:-0.04em;}</style></defs><title>logo-new</title><polygon class="cls-1" points="14.25 1.2 61.89 1.2 61.89 84.1 14.25 87.91 14.25 1.2"/><polygon class="cls-1" points="170.53 1.2 217.22 1.2 217.22 53.61 170.53 126.03 170.53 1.2"/><path class="cls-2" d="M345.42,47.54V93.27c0-.83-11.81.36-12.45.46-12,1.86-23.24,7.07-33.23,13.77a107.32,107.32,0,0,0-20.82,18.91,258.75,258.75,0,0,0-18.15,24.1c-3.16,4.62-6.11,9.24-9,13.85-6.6,10.61-12.75,21.21-20,31.9q-3.15,4.66-6.6,9.12A155.39,155.39,0,0,1,180,245.52a134.33,134.33,0,0,1-12.26,6.24c-16.18,7.22-31.93,9.5-49.24,11,0,0-94.8,8.35-98.14-118.22L68,141.22c-2,.15,2.11,29,2.54,30.89,3.1,13.74,8.74,26.74,20.59,35.1,17.47,12.31,39.71,10.19,58.36,1.86,20.23-9,35.46-23.73,47.19-42.2,9.2-14.48,16.85-29.93,26-44.38A225.17,225.17,0,0,1,253.79,84c21.61-21.09,48.22-36.88,78-37.34A87.57,87.57,0,0,1,345.42,47.54Z" transform="translate(-6.08 -46.66)"/><path class="cls-1" d="M361.73,47.66V93.27s40.68,18.8,40.39,64.24a25.41,25.41,0,0,0,25.36,25.65h0a12.2,12.2,0,0,0,12.08-10.46C443.44,145.66,445.25,73.7,361.73,47.66Z" transform="translate(-6.08 -46.66)"/><circle class="cls-1" cx="415.38" cy="196.14" r="20.1"/><text class="cls-3" transform="translate(14.11 256.74)">web development</text></svg>